<svg version="1.1" viewBox="0.0 0.0 932.4566929133858 561.4041994750656" fill="none" stroke="none" stroke-linecap="square" stroke-miterlimit="10" xmlns:xlink="http://www.w3.org/1999/xlink" xmlns="http://www.w3.org/2000/svg"><clipPath id="p.0"><path d="m0 0l932.45667 0l0 561.4042l-932.45667 0l0 -561.4042z" clip-rule="nonzero"/></clipPath><g clip-path="url(#p.0)"><path fill="#000000" fill-opacity="0.0" d="m0 0l932.45667 0l0 561.4042l-932.45667 0z" fill-rule="evenodd"/><path fill="#eeeeee" d="m-9.811023E-4 93.49366l0 0c0 -51.635788 41.859074 -93.494865 93.494865 -93.494865l744.9622 0c24.796387 0 48.57721 9.850323 66.11084 27.38401c17.533691 17.53369 27.384033 41.314476 27.384033 66.110855l0 373.96823c0 51.635773 -41.85907 93.49484 -93.49487 93.49484l-744.9622 0c-51.635788 0 -93.494865 -41.85907 -93.494865 -93.49484z" fill-rule="evenodd"/><path fill="#12e3bc" d="m79.70973 86.07469l0 0c0 -22.57341 18.29937 -40.872776 40.87278 -40.872776l163.4862 0l0 0c10.840149 0 21.236298 4.3062286 28.901428 11.971359c7.6651306 7.6651344 11.971344 18.061283 11.971344 28.901417l0 388.80615c0 22.573395 -18.299347 40.87274 -40.872772 40.87274l-163.4862 0c-22.57341 0 -40.87278 -18.299347 -40.87278 -40.87274z" fill-rule="evenodd"/><path fill="#ffd966" d="m470.5757 280.47778l-145.61935 -235.27586l-145.61937 0l291.2387 470.5517z" fill-rule="evenodd"/><path fill="#ffd966" d="m601.89825 86.07469l0 0c0 -22.57341 18.299377 -40.872776 40.872803 -40.872776l163.4862 0l0 0c10.840149 0 21.236267 4.3062286 28.901428 11.971359c7.6651 7.6651344 11.9713745 18.061283 11.9713745 28.901417l0 388.80615c0 22.573395 -18.299377 40.87274 -40.872803 40.87274l-163.4862 0c-22.573425 0 -40.872803 -18.299347 -40.872803 -40.87274z" fill-rule="evenodd"/><path fill="#12e3bc" d="m470.5757 280.47778l145.61935 -235.27586l145.61932 0l-291.23868 470.5517z" fill-rule="evenodd"/><path fill="#6fa8dc" d="m410.7939 100.377625l0 0c0 -30.472702 24.704315 -55.17571 55.17862 -55.17571l0 0c14.634277 0 28.66919 5.813137 39.01718 16.160591c10.347992 10.347454 16.161469 24.38161 16.161469 39.015118l0 0c0 30.472702 -24.704346 55.175705 -55.17865 55.175705l0 0c-30.474304 0 -55.17862 -24.703003 -55.17862 -55.175705z" fill-rule="evenodd"/></g></svg>