<svg version="1.1" viewBox="0.0 0.0 178.70866141732284 100.0" fill="none" stroke="none" stroke-linecap="square" stroke-miterlimit="10" xmlns:xlink="http://www.w3.org/1999/xlink" xmlns="http://www.w3.org/2000/svg"><clipPath id="p.0"><path d="m0 0l178.70866 0l0 100.0l-178.70866 0l0 -100.0z" clip-rule="nonzero"/></clipPath><g clip-path="url(#p.0)"><path fill="#000000" fill-opacity="0.0" d="m0 0l178.70866 0l0 100.0l-178.70866 0z" fill-rule="evenodd"/><path fill="#000000" fill-opacity="0.0" d="m0.26509187 -0.023622047l182.61418 0l0 100.18897l-182.61418 0z" fill-rule="evenodd"/><path fill="#434343" d="m18.280716 25.585752l19.5 44.8125l19.5625 -44.8125l2.5625 0l0 47.390625l-1.75 0l0 -44.78125l-19.65625 44.78125l-1.40625 0l-19.5625 -44.5625l0 44.5625l-1.749999 0l0 -47.390625l2.499999 0zm61.715027 22.328127l3.96875 0q5.5625 -0.09375 8.984375 -2.953125q3.4375 -2.875 3.4375 -7.296875q0 -5.046875 -3.078125 -8.000002q-3.0625 -2.96875 -8.53125 -2.96875q-5.34375 0 -8.796875 3.125q-3.4375 3.125002 -3.4375 8.203127l-1.765625 0q0 -3.78125 1.8125 -6.765627q1.828125 -3.0 5.046875 -4.65625q3.234375 -1.671875 7.140625 -1.671875q6.15625 0 9.765625 3.46875q3.609375 3.46875 3.609375 9.390627q0 3.78125 -2.390625 6.75q-2.390625 2.953125 -6.46875 4.1875q4.65625 1.078125 7.28125 4.046875q2.625 2.953125 2.625 7.640625q0 6.046875 -3.875 9.640625q-3.875 3.578125 -10.25 3.578125q-4.296875 0 -7.953125 -1.859375q-3.640625 -1.859375 -5.5 -4.90625q-1.84375 -3.0625 -1.84375 -7.078125l1.75 0q0 5.21875 3.84375 8.65625q3.84375 3.421875 9.703125 3.421875q5.8125 0 9.078125 -3.0q3.28125 -3.015625 3.28125 -8.328125q0 -5.234375 -3.5 -8.0q-3.5 -2.765625 -10.234375 -2.796875l-3.703125 0l0 -1.828125z" fill-rule="nonzero"/><path fill="#ff9900" d="m143.6528 25.585752l0 31.015627q0 5.28125 -2.25 9.140625q-2.25 3.84375 -6.453125 5.875q-4.1875 2.015625 -9.921875 2.015625q-8.65625 0 -13.640625 -4.484375q-4.96875 -4.5 -5.0625 -12.3125l0 -31.250002l11.484375 0l0 31.468752q0.203125 7.78125 7.21875 7.78125q3.546875 0 5.375 -1.953125q1.828125 -1.953125 1.828125 -6.34375l0 -30.953127l11.421875 0zm19.296463 47.390625l-11.390625 0l0 -47.390625l11.390625 0l0 47.390625z" fill-rule="nonzero"/></g></svg>